<?xml version="1.0" encoding="iso-8859-1"?>
<!-- Generator: Adobe Illustrator 16.0.0, SVG Export Plug-In . SVG Version: 6.00 Build 0)  -->
<!DOCTYPE svg PUBLIC "-//W3C//DTD SVG 1.1//EN" "http://www.w3.org/Graphics/SVG/1.1/DTD/svg11.dtd">
<svg version="1.1" id="Capa_1" xmlns="http://www.w3.org/2000/svg" xmlns:xlink="http://www.w3.org/1999/xlink" x="0px" y="0px"
	 width="604.762px" height="604.762px" viewBox="0 0 604.762 604.762" style="enable-background:new 0 0 604.762 604.762;"
	 xml:space="preserve">
<g>
	<g>
		<path d="M409.256,37.796h-213.75c-28.745,0-52.135,23.39-52.135,52.135v49.529H65.168C29.232,139.459,0,168.692,0,204.628v297.169
			c0,35.936,29.232,65.169,65.168,65.169h474.425c35.936,0,65.168-29.233,65.168-65.169V204.623
			c0-35.936-29.232-65.168-65.168-65.168h-78.203V89.931C461.391,61.186,438,37.796,409.256,37.796z M185.078,89.931
			c0-5.747,4.681-10.428,10.428-10.428h213.75c5.748,0,10.428,4.681,10.428,10.428v49.529H185.078V89.931z M96.447,520.037H65.168
			c-10.06,0-18.245-8.186-18.245-18.245V204.623c0-10.06,8.186-18.245,18.245-18.245h31.279V520.037z M508.314,186.378h31.279
			c10.059,0,18.244,8.186,18.244,18.245v297.169c0,10.06-8.186,18.245-18.244,18.245h-31.279V186.378z M466.602,186.378v333.659
			H138.154V186.378H466.602z"/>
	</g>
</g>
<g>
</g>
<g>
</g>
<g>
</g>
<g>
</g>
<g>
</g>
<g>
</g>
<g>
</g>
<g>
</g>
<g>
</g>
<g>
</g>
<g>
</g>
<g>
</g>
<g>
</g>
<g>
</g>
<g>
</g>
</svg>
